<svg width="32" height="32" viewBox="0 0 32 32" fill="none" xmlns="http://www.w3.org/2000/svg">
<rect width="32" height="32" rx="4" fill="#27272A"/>
<path d="M22.9469 21.2762L19.4469 14.2762C19.4053 14.1932 19.3415 14.1234 19.2625 14.0746C19.1835 14.0258 19.0925 13.9999 18.9997 13.9999C18.9068 13.9999 18.8158 14.0258 18.7368 14.0746C18.6579 14.1234 18.594 14.1932 18.5525 14.2762L17.1956 16.9906C16.1321 16.9308 15.1087 16.5634 14.25 15.9331C15.2576 14.8572 15.868 13.4698 15.9806 12H17.5C17.6326 12 17.7598 11.9473 17.8536 11.8536C17.9473 11.7598 18 11.6326 18 11.5C18 11.3674 17.9473 11.2402 17.8536 11.1464C17.7598 11.0527 17.6326 11 17.5 11H14V10C14 9.86739 13.9473 9.74021 13.8536 9.64645C13.7598 9.55268 13.6326 9.5 13.5 9.5C13.3674 9.5 13.2402 9.55268 13.1464 9.64645C13.0527 9.74021 13 9.86739 13 10V11H9.5C9.36739 11 9.24021 11.0527 9.14645 11.1464C9.05268 11.2402 9 11.3674 9 11.5C9 11.6326 9.05268 11.7598 9.14645 11.8536C9.24021 11.9473 9.36739 12 9.5 12H14.9769C14.8655 13.2254 14.3453 14.3778 13.5 15.2719C12.9732 14.716 12.5687 14.056 12.3125 13.3344C12.2914 13.2714 12.258 13.2133 12.2143 13.1634C12.1705 13.1134 12.1172 13.0727 12.0575 13.0436C11.9978 13.0145 11.933 12.9976 11.8667 12.9938C11.8004 12.9901 11.734 12.9995 11.6714 13.0217C11.6088 13.0439 11.5513 13.0783 11.5022 13.1229C11.453 13.1676 11.4132 13.2215 11.3852 13.2817C11.3571 13.3419 11.3413 13.407 11.3387 13.4734C11.3361 13.5397 11.3467 13.6059 11.37 13.6681C11.6683 14.5118 12.1382 15.2845 12.75 15.9375C11.808 16.6297 10.669 17.0021 9.5 17C9.36739 17 9.24021 17.0527 9.14645 17.1464C9.05268 17.2402 9 17.3674 9 17.5C9 17.6326 9.05268 17.7598 9.14645 17.8536C9.24021 17.9473 9.36739 18 9.5 18C10.9504 18.0016 12.3592 17.5156 13.5 16.62C14.431 17.3474 15.5423 17.8078 16.715 17.9519L15.0525 21.2762C14.9932 21.3949 14.9834 21.5322 15.0253 21.658C15.0672 21.7838 15.1573 21.8878 15.2759 21.9472C15.3945 22.0065 15.5319 22.0163 15.6577 21.9744C15.7835 21.9325 15.8875 21.8424 15.9469 21.7238L16.8088 20H21.1906L22.0525 21.7238C22.0941 21.8068 22.158 21.8767 22.237 21.9255C22.316 21.9743 22.4071 22.0001 22.5 22C22.5852 22 22.669 21.9781 22.7434 21.9366C22.8178 21.8951 22.8804 21.8352 22.9252 21.7627C22.9699 21.6902 22.9954 21.6074 22.9992 21.5223C23.003 21.4372 22.985 21.3525 22.9469 21.2762ZM17.3088 19L19 15.6181L20.6906 19H17.3088Z" fill="#71717A"/>
</svg>
