<svg width="32" height="32" viewBox="0 0 32 32" fill="none" xmlns="http://www.w3.org/2000/svg">
<rect width="32" height="32" rx="4" fill="#27272A"/>
<path d="M21.0194 12.73C21.1722 12.237 21.2212 11.7177 21.1634 11.2048C21.1055 10.6919 20.942 10.1966 20.6831 9.75001C20.6392 9.67398 20.5761 9.61085 20.5001 9.56697C20.424 9.52308 20.3378 9.49999 20.25 9.50001C19.6676 9.49879 19.093 9.6338 18.5721 9.89425C18.0512 10.1547 17.5985 10.5334 17.25 11H15.75C15.4015 10.5334 14.9488 10.1547 14.4279 9.89425C13.907 9.6338 13.3324 9.49879 12.75 9.50001C12.6622 9.49999 12.576 9.52308 12.4999 9.56697C12.4239 9.61085 12.3608 9.67398 12.3169 9.75001C12.058 10.1966 11.8945 10.6919 11.8366 11.2048C11.7788 11.7177 11.8278 12.237 11.9806 12.73C11.6717 13.2692 11.5062 13.8786 11.5 14.5V15C11.5011 15.846 11.8082 16.6631 12.3646 17.3003C12.9211 17.9375 13.6893 18.3519 14.5275 18.4669C14.1854 18.9047 13.9997 19.4444 14 20V20.5H12.5C12.1022 20.5 11.7206 20.342 11.4393 20.0607C11.158 19.7794 11 19.3978 11 19C11 18.6717 10.9353 18.3466 10.8097 18.0433C10.6841 17.74 10.4999 17.4644 10.2678 17.2322C10.0356 17.0001 9.76002 16.8159 9.45671 16.6903C9.15339 16.5647 8.8283 16.5 8.5 16.5C8.36739 16.5 8.24021 16.5527 8.14645 16.6465C8.05268 16.7402 8 16.8674 8 17C8 17.1326 8.05268 17.2598 8.14645 17.3536C8.24021 17.4473 8.36739 17.5 8.5 17.5C8.89782 17.5 9.27936 17.658 9.56066 17.9393C9.84196 18.2207 10 18.6022 10 19C10 19.663 10.2634 20.2989 10.7322 20.7678C11.2011 21.2366 11.837 21.5 12.5 21.5H14V22.5C14 22.6326 14.0527 22.7598 14.1464 22.8536C14.2402 22.9473 14.3674 23 14.5 23C14.6326 23 14.7598 22.9473 14.8536 22.8536C14.9473 22.7598 15 22.6326 15 22.5V20C15 19.6022 15.158 19.2207 15.4393 18.9393C15.7206 18.658 16.1022 18.5 16.5 18.5C16.8978 18.5 17.2794 18.658 17.5607 18.9393C17.842 19.2207 18 19.6022 18 20V22.5C18 22.6326 18.0527 22.7598 18.1464 22.8536C18.2402 22.9473 18.3674 23 18.5 23C18.6326 23 18.7598 22.9473 18.8536 22.8536C18.9473 22.7598 19 22.6326 19 22.5V20C19.0003 19.4444 18.8146 18.9047 18.4725 18.4669C19.3107 18.3519 20.0789 17.9375 20.6354 17.3003C21.1918 16.6631 21.4989 15.846 21.5 15V14.5C21.4938 13.8786 21.3283 13.2692 21.0194 12.73ZM20.5 15C20.5 15.663 20.2366 16.2989 19.7678 16.7678C19.2989 17.2366 18.663 17.5 18 17.5H15C14.337 17.5 13.7011 17.2366 13.2322 16.7678C12.7634 16.2989 12.5 15.663 12.5 15V14.5C12.5061 14 12.6558 13.5123 12.9313 13.095C12.9826 13.0273 13.0158 12.9477 13.0279 12.8636C13.0399 12.7795 13.0303 12.6937 13 12.6144C12.8698 12.2785 12.8071 11.9202 12.8156 11.5601C12.824 11.1999 12.9035 10.845 13.0494 10.5156C13.4586 10.5597 13.8526 10.6952 14.2023 10.9122C14.552 11.1293 14.8483 11.4222 15.0694 11.7694C15.1144 11.8398 15.1764 11.8978 15.2497 11.9381C15.3229 11.9784 15.4051 11.9997 15.4887 12H17.5106C17.5946 12 17.6771 11.9789 17.7508 11.9386C17.8244 11.8983 17.8867 11.8401 17.9319 11.7694C18.1529 11.4222 18.4492 11.1292 18.7989 10.9122C19.1486 10.6951 19.5427 10.5596 19.9519 10.5156C20.0976 10.8451 20.1768 11.2001 20.1851 11.5602C20.1933 11.9204 20.1304 12.2786 20 12.6144C19.9698 12.693 19.9597 12.7779 19.9706 12.8614C19.9815 12.9449 20.0131 13.0243 20.0625 13.0925C20.3407 13.5098 20.4926 13.9985 20.5 14.5V15Z" fill="#71717A"/>
</svg>
