<svg width="32" height="32" viewBox="0 0 32 32" fill="none" xmlns="http://www.w3.org/2000/svg">
<rect width="32" height="32" rx="4" fill="#27272A"/>
<path d="M15.5 10.5V10C15.5 9.86739 15.5527 9.74021 15.6464 9.64645C15.7402 9.55268 15.8674 9.5 16 9.5C16.1326 9.5 16.2598 9.55268 16.3536 9.64645C16.4473 9.74021 16.5 9.86739 16.5 10V10.5C16.5 10.6326 16.4473 10.7598 16.3536 10.8536C16.2598 10.9473 16.1326 11 16 11C15.8674 11 15.7402 10.9473 15.6464 10.8536C15.5527 10.7598 15.5 10.6326 15.5 10.5ZM20 16C20 16.7911 19.7654 17.5645 19.3259 18.2223C18.8864 18.8801 18.2616 19.3928 17.5307 19.6955C16.7998 19.9983 15.9956 20.0775 15.2196 19.9231C14.4437 19.7688 13.731 19.3878 13.1716 18.8284C12.6122 18.269 12.2312 17.5563 12.0769 16.7804C11.9225 16.0044 12.0017 15.2002 12.3045 14.4693C12.6072 13.7384 13.1199 13.1136 13.7777 12.6741C14.4355 12.2346 15.2089 12 16 12C17.0605 12.0012 18.0773 12.423 18.8271 13.1729C19.577 13.9227 19.9988 14.9395 20 16ZM19 16C19 15.4067 18.8241 14.8266 18.4944 14.3333C18.1648 13.8399 17.6962 13.4554 17.1481 13.2284C16.5999 13.0013 15.9967 12.9419 15.4147 13.0576C14.8328 13.1734 14.2982 13.4591 13.8787 13.8787C13.4591 14.2982 13.1734 14.8328 13.0576 15.4147C12.9419 15.9967 13.0013 16.5999 13.2284 17.1481C13.4554 17.6962 13.8399 18.1648 14.3333 18.4944C14.8266 18.8241 15.4067 19 16 19C16.7954 18.9992 17.558 18.6828 18.1204 18.1204C18.6828 17.558 18.9992 16.7954 19 16ZM11.6463 12.3538C11.7401 12.4476 11.8673 12.5003 12 12.5003C12.1327 12.5003 12.2599 12.4476 12.3538 12.3538C12.4476 12.2599 12.5003 12.1327 12.5003 12C12.5003 11.8673 12.4476 11.7401 12.3538 11.6463L11.8537 11.1463C11.7599 11.0524 11.6327 10.9997 11.5 10.9997C11.3673 10.9997 11.2401 11.0524 11.1463 11.1463C11.0524 11.2401 10.9997 11.3673 10.9997 11.5C10.9997 11.6327 11.0524 11.7599 11.1463 11.8537L11.6463 12.3538ZM11.6463 19.6462L11.1463 20.1462C11.0524 20.2401 10.9997 20.3673 10.9997 20.5C10.9997 20.6327 11.0524 20.7599 11.1463 20.8538C11.2401 20.9476 11.3673 21.0003 11.5 21.0003C11.6327 21.0003 11.7599 20.9476 11.8537 20.8538L12.3538 20.3538C12.4002 20.3073 12.4371 20.2521 12.4622 20.1914C12.4873 20.1308 12.5003 20.0657 12.5003 20C12.5003 19.9343 12.4873 19.8692 12.4622 19.8086C12.4371 19.7479 12.4002 19.6927 12.3538 19.6462C12.3073 19.5998 12.2521 19.5629 12.1914 19.5378C12.1308 19.5127 12.0657 19.4997 12 19.4997C11.9343 19.4997 11.8692 19.5127 11.8086 19.5378C11.7479 19.5629 11.6927 19.5998 11.6463 19.6462ZM20 12.5C20.0657 12.5001 20.1307 12.4872 20.1914 12.4621C20.2521 12.437 20.3073 12.4002 20.3538 12.3538L20.8538 11.8537C20.9476 11.7599 21.0003 11.6327 21.0003 11.5C21.0003 11.3673 20.9476 11.2401 20.8538 11.1463C20.7599 11.0524 20.6327 10.9997 20.5 10.9997C20.3673 10.9997 20.2401 11.0524 20.1462 11.1463L19.6462 11.6463C19.5762 11.7162 19.5286 11.8053 19.5092 11.9023C19.4899 11.9994 19.4998 12.1 19.5377 12.1914C19.5756 12.2828 19.6397 12.3609 19.722 12.4159C19.8043 12.4708 19.9011 12.5001 20 12.5ZM20.3538 19.6462C20.2599 19.5524 20.1327 19.4997 20 19.4997C19.8673 19.4997 19.7401 19.5524 19.6462 19.6462C19.5524 19.7401 19.4997 19.8673 19.4997 20C19.4997 20.1327 19.5524 20.2599 19.6462 20.3538L20.1462 20.8538C20.1927 20.9002 20.2479 20.9371 20.3086 20.9622C20.3692 20.9873 20.4343 21.0003 20.5 21.0003C20.5657 21.0003 20.6308 20.9873 20.6914 20.9622C20.7521 20.9371 20.8073 20.9002 20.8538 20.8538C20.9002 20.8073 20.9371 20.7521 20.9622 20.6914C20.9873 20.6308 21.0003 20.5657 21.0003 20.5C21.0003 20.4343 20.9873 20.3692 20.9622 20.3086C20.9371 20.2479 20.9002 20.1927 20.8538 20.1462L20.3538 19.6462ZM10.5 15.5H10C9.86739 15.5 9.74021 15.5527 9.64645 15.6464C9.55268 15.7402 9.5 15.8674 9.5 16C9.5 16.1326 9.55268 16.2598 9.64645 16.3536C9.74021 16.4473 9.86739 16.5 10 16.5H10.5C10.6326 16.5 10.7598 16.4473 10.8536 16.3536C10.9473 16.2598 11 16.1326 11 16C11 15.8674 10.9473 15.7402 10.8536 15.6464C10.7598 15.5527 10.6326 15.5 10.5 15.5ZM16 21C15.8674 21 15.7402 21.0527 15.6464 21.1464C15.5527 21.2402 15.5 21.3674 15.5 21.5V22C15.5 22.1326 15.5527 22.2598 15.6464 22.3536C15.7402 22.4473 15.8674 22.5 16 22.5C16.1326 22.5 16.2598 22.4473 16.3536 22.3536C16.4473 22.2598 16.5 22.1326 16.5 22V21.5C16.5 21.3674 16.4473 21.2402 16.3536 21.1464C16.2598 21.0527 16.1326 21 16 21ZM22 15.5H21.5C21.3674 15.5 21.2402 15.5527 21.1464 15.6464C21.0527 15.7402 21 15.8674 21 16C21 16.1326 21.0527 16.2598 21.1464 16.3536C21.2402 16.4473 21.3674 16.5 21.5 16.5H22C22.1326 16.5 22.2598 16.4473 22.3536 16.3536C22.4473 16.2598 22.5 16.1326 22.5 16C22.5 15.8674 22.4473 15.7402 22.3536 15.6464C22.2598 15.5527 22.1326 15.5 22 15.5Z" fill="#71717A"/>
</svg>
